<?xml version="1.0" standalone="no"?>
<!DOCTYPE svg PUBLIC "-//W3C//DTD SVG 20010904//EN"
 "http://www.w3.org/TR/2001/REC-SVG-20010904/DTD/svg10.dtd">
<svg version="1.0" xmlns="http://www.w3.org/2000/svg"
 width="1920.000000pt" height="939.000000pt" viewBox="0 0 1920.000000 939.000000"
 preserveAspectRatio="xMidYMid meet">

<g transform="translate(0.000000,939.000000) scale(0.100000,-0.100000)"
fill="#000000" stroke="none">
<path d="M0 4695 l0 -4695 9600 0 9600 0 0 4695 0 4695 -9600 0 -9600 0 0
-4695z m8582 2696 c496 -127 798 -683 663 -1218 -28 -110 -68 -203 -88 -203
-7 0 -21 6 -32 14 -20 14 -20 15 19 118 45 119 59 216 53 367 -6 167 -29 259
-97 396 -208 417 -670 583 -1067 384 -159 -80 -287 -211 -373 -384 -78 -157
-94 -230 -95 -415 0 -85 4 -176 8 -201 l8 -46 -77 -22 c-269 -78 -518 -266
-694 -525 -31 -47 -32 -50 -15 -60 156 -91 276 -252 319 -427 20 -83 21 -243
0 -329 -19 -84 -83 -213 -131 -268 l-38 -44 -22 24 -22 23 36 45 c49 62 100
172 118 255 51 244 -47 494 -248 630 -90 62 -225 91 -342 75 -202 -28 -389
-207 -440 -421 -19 -84 -19 -235 1 -312 60 -232 247 -400 469 -423 l63 -7 38
-96 c150 -383 370 -638 690 -801 86 -43 249 -102 258 -92 3 3 6 31 6 62 0 76
27 227 57 325 117 371 393 664 737 781 88 30 213 54 282 54 l54 0 0 -34 0 -33
-83 -6 c-407 -32 -767 -326 -916 -749 -40 -116 -61 -228 -68 -374 l-6 -121
-56 9 c-180 28 -437 163 -611 320 -169 153 -327 391 -405 610 l-27 76 -66 12
c-178 30 -343 159 -426 333 -59 124 -71 179 -70 322 1 101 5 133 27 200 47
144 133 263 245 339 127 87 282 122 417 93 39 -8 70 -14 71 -13 1 0 17 26 36
56 156 247 410 453 671 545 l77 28 -6 101 c-28 435 221 851 594 995 67 25 101
34 222 55 49 9 209 -5 282 -23z m-288 -322 c8 -40 4 -45 -42 -52 -104 -17
-247 -125 -321 -242 -210 -333 -65 -796 287 -917 94 -32 230 -32 324 0 71 25
192 103 227 148 l22 28 25 -25 25 -26 -66 -61 c-72 -68 -194 -133 -283 -151
-229 -47 -473 62 -612 275 -70 107 -102 213 -108 356 -5 139 11 229 63 337 83
172 210 286 385 342 71 23 67 24 74 -12z m-491 -1276 c129 -136 261 -212 430
-247 199 -41 415 5 586 125 39 27 74 49 79 49 4 0 29 -35 55 -77 130 -216 203
-466 214 -733 5 -121 -8 -314 -24 -356 -3 -8 4 -17 18 -23 52 -20 183 -114
257 -186 396 -377 501 -1017 251 -1519 -139 -277 -367 -487 -636 -586 -236
-85 -517 -80 -748 14 -231 94 -455 295 -570 511 -29 55 -30 56 -11 71 27 20
44 18 51 -7 15 -46 129 -200 201 -272 136 -135 299 -231 474 -279 74 -20 107
-23 250 -22 199 1 269 16 435 99 402 199 643 632 622 1115 -10 238 -79 451
-208 643 -91 135 -268 291 -409 362 -30 15 -56 28 -56 29 -1 0 2 26 7 56 56
343 10 673 -132 950 -58 113 -47 108 -125 62 -282 -168 -624 -161 -895 17 -77
51 -249 221 -249 246 0 11 36 45 48 45 2 0 40 -39 85 -87z m4802 -628 l0 -500
-60 0 -60 0 -3 490 c-1 270 0 496 3 503 3 9 22 12 62 10 l58 -3 0 -500z m953
443 l3 -58 -151 0 -150 0 0 -445 0 -445 -60 0 -60 0 -2 443 -3 442 -147 3
-148 3 0 59 0 60 358 -2 357 -3 3 -57z m-2826 -310 c4 -392 5 -406 61 -467 77
-83 277 -83 354 0 53 58 56 87 61 472 l4 357 60 0 60 0 -5 -357 c-5 -391 -11
-440 -65 -518 -35 -51 -102 -101 -155 -117 -23 -7 -90 -13 -148 -13 -102 0
-109 1 -174 35 -52 26 -76 47 -102 83 -63 93 -73 168 -73 565 l0 322 59 0 59
0 4 -362z m1498 303 l0 -59 -261 -354 c-144 -194 -270 -362 -280 -374 -10 -11
-19 -23 -19 -27 0 -4 131 -7 290 -7 l290 0 0 -55 0 -55 -360 0 -360 0 0 59 0
59 222 303 c121 167 248 339 280 382 l59 77 -256 0 -255 0 0 55 0 55 325 0
325 0 0 -59z m-5515 -242 c119 -44 215 -172 237 -316 26 -165 -62 -342 -207
-416 -17 -8 -58 -20 -91 -27 -148 -29 -301 56 -376 208 -40 82 -50 200 -24
295 32 117 133 229 236 262 67 21 160 19 225 -6z m2183 -1125 c44 -9 117 -35
172 -61 81 -39 108 -59 185 -137 78 -78 98 -106 143 -196 75 -151 87 -204 87
-390 0 -174 -12 -235 -69 -357 -109 -230 -297 -383 -526 -429 -369 -74 -733
184 -830 588 -27 113 -27 283 0 396 98 408 462 663 838 586z m2391 -27 c54
-36 60 -53 28 -84 l-25 -26 -27 22 c-105 82 -245 13 -245 -122 0 -83 69 -152
151 -151 40 0 55 6 79 29 17 16 30 32 30 37 0 4 -27 8 -61 8 l-60 0 3 43 3 42
103 3 c118 3 121 1 102 -78 -16 -65 -59 -124 -111 -151 -63 -32 -163 -24 -221
16 -142 100 -128 347 24 424 63 32 168 27 227 -12z m907 17 c46 -22 108 -94
122 -142 28 -92 6 -191 -56 -256 -46 -48 -87 -66 -151 -66 -62 0 -89 10 -135
51 -59 52 -81 102 -81 189 0 106 42 177 130 223 39 21 128 21 171 1z m-496 -7
c35 -18 70 -74 70 -114 0 -47 -24 -99 -52 -114 -12 -6 -24 -13 -26 -14 -2 -2
20 -48 47 -104 l51 -101 -45 0 -45 0 -49 98 -50 97 0 -97 -1 -98 -40 0 -40 0
0 230 0 230 78 0 c42 0 88 -6 102 -13z m840 -157 c0 -169 0 -171 25 -196 19
-18 31 -23 48 -19 49 15 52 25 55 210 l4 175 39 0 39 0 0 -162 c-1 -197 -7
-232 -54 -275 -31 -28 -43 -33 -87 -33 -60 0 -98 20 -125 64 -16 27 -19 56
-22 219 l-4 187 41 0 41 0 0 -170z m545 154 c83 -39 87 -187 6 -229 -16 -8
-47 -17 -70 -21 l-41 -7 0 -93 0 -94 -40 0 -40 0 0 230 0 230 76 0 c48 0 88
-6 109 -16z"/>
<path d="M6472 5279 c-67 -33 -109 -79 -145 -156 -33 -72 -31 -198 4 -273 34
-74 76 -120 140 -155 44 -23 65 -28 123 -28 86 -1 128 16 191 74 70 65 98 126
103 229 5 113 -20 183 -92 255 -91 91 -211 111 -324 54z"/>
<path d="M8675 4164 c-55 -9 -159 -46 -214 -77 -117 -65 -241 -210 -295 -343
-93 -229 -68 -507 65 -711 50 -76 157 -179 230 -221 178 -100 392 -107 575
-16 87 43 197 140 256 226 153 226 170 524 46 778 -34 67 -60 103 -128 171
-131 132 -251 188 -415 194 -49 2 -103 1 -120 -1z"/>
<path d="M12065 4146 c-97 -42 -123 -186 -47 -259 56 -54 128 -54 184 -1 78
76 52 218 -49 260 -39 17 -50 17 -88 0z"/>
<path d="M11600 4095 c0 -42 2 -45 26 -45 38 0 64 18 64 43 0 32 -18 47 -57
47 -32 0 -33 -1 -33 -45z"/>
<path d="M12980 4095 c0 -42 2 -45 26 -45 38 0 64 18 64 43 0 32 -18 47 -57
47 -32 0 -33 -1 -33 -45z"/>
</g>
</svg>
